# xmcd
#
# Track frame offsets: 
#        150
#        20358
#        39639
#        62366
#        79438
#        100117
#        124575
#        156028
#        174110
#        195013
#        212863
#        234434
#        249358
#        274872
#        301311
#
# Disc length: 4363 seconds
#
# Revision: 2
# Processed by: cddbd v1.5.2PL0 Copyright (c) Steve Scherf et al.
# Submitted via: ExactAudioCopy v1.3
#
DISCID=b411090f
DTITLE=Poco - Bareback At Big Sky
DYEAR=2005
DGENRE=Country
TTITLE0=Under The Gun
TTITLE1=Nothing Less Than Love
TTITLE2=Every Time I Hear That Train
TTITLE3=Save A Corner Of Your Heart For Me
TTITLE4=Barbados
TTITLE5=If Your Heart Needs A Hand
TTITLE6=Cajun Moon
TTITLE7=Never Loved...Never Hurt Like This
TTITLE8=Midnight Rain
TTITLE9=What Do People Know
TTITLE10=Shake It
TTITLE11=Find Out In Time
TTITLE12=Too Many Nights Too Long
TTITLE13=Bareback
TTITLE14=On The Way Home
EXTD=
EXTT0=
EXTT1=
EXTT2=
EXTT3=
EXTT4=
EXTT5=
EXTT6=
EXTT7=
EXTT8=
EXTT9=
EXTT10=
EXTT11=
EXTT12=
EXTT13=
EXTT14=
PLAYORDER=
